<svg width="40" height="41" viewBox="0 0 40 41" fill="none" xmlns="http://www.w3.org/2000/svg">
<g id="sort-vertical-svgrepo-com 1">
<path id="Vector" fill-rule="evenodd" clip-rule="evenodd" d="M26.6667 9.25C27.0049 9.25 27.3287 9.38703 27.564 9.62982L34.2307 16.5048C34.7114 17.0004 34.6992 17.7918 34.2035 18.2723C33.7079 18.753 32.9165 18.7408 32.436 18.2452L27.9167 13.5847V30.5C27.9167 31.1903 27.357 31.75 26.6667 31.75C25.9764 31.75 25.4167 31.1903 25.4167 30.5V13.5847L20.8974 18.2452C20.4169 18.7408 19.6255 18.753 19.1299 18.2723C18.6342 17.7918 18.622 17.0004 19.1027 16.5048L25.7694 9.62982C26.0047 9.38703 26.3285 9.25 26.6667 9.25ZM13.3334 9.25C14.0237 9.25 14.5834 9.80965 14.5834 10.5V27.4153L19.1027 22.7548C19.5832 22.2592 20.3745 22.247 20.8702 22.7277C21.3659 23.2082 21.378 23.9995 20.8974 24.4952L14.2307 31.3702C13.9953 31.613 13.6715 31.75 13.3334 31.75C12.9952 31.75 12.6714 31.613 12.436 31.3702L5.76932 24.4952C5.28872 23.9995 5.3009 23.2082 5.7965 22.7277C6.29212 22.247 7.08347 22.2592 7.56407 22.7548L12.0834 27.4153V10.5C12.0834 9.80965 12.643 9.25 13.3334 9.25Z" fill="#83878C"/>
</g>
</svg>
