<svg width="40" height="40" viewBox="0 0 40 40" fill="none" xmlns="http://www.w3.org/2000/svg">
<g id="trending-up-outline-svgrepo-com 1">
<path id="Vector" d="M27.5 11.25H36.25V20" stroke="#705CF6" stroke-width="2.5" stroke-linecap="round" stroke-linejoin="round"/>
<path id="Vector_2" d="M3.75 28.75L13.232 19.268C13.4642 19.0358 13.7398 18.8516 14.0432 18.7259C14.3465 18.6002 14.6716 18.5355 15 18.5355C15.3284 18.5355 15.6535 18.6002 15.9568 18.7259C16.2602 18.8516 16.5358 19.0358 16.768 19.268L20.732 23.232C20.9642 23.4642 21.2398 23.6484 21.5432 23.7741C21.8465 23.8998 22.1716 23.9645 22.5 23.9645C22.8284 23.9645 23.1535 23.8998 23.4568 23.7741C23.7602 23.6484 24.0358 23.4642 24.268 23.232L35 12.5" stroke="#705CF6" stroke-width="2.5" stroke-linecap="round" stroke-linejoin="round"/>
</g>
</svg>
